<svg id="logo" xmlns="http://www.w3.org/2000/svg" xmlns:xlink="http://www.w3.org/1999/xlink" width="91.752" height="50" viewBox="0 0 91.752 50">
  <defs>
    <clipPath id="clip-path">
      <rect id="사각형_16520" data-name="사각형 16520" width="91.752" height="50" fill="none"/>
    </clipPath>
  </defs>
  <g id="그룹_30" data-name="그룹 30" transform="translate(0 0.001)">
    <rect id="사각형_16514" data-name="사각형 16514" width="3.328" height="7.792" transform="translate(82.53 -0.001)" fill="#1ba7b4"/>
    <rect id="사각형_16515" data-name="사각형 16515" width="3.328" height="7.792" transform="translate(76.62 5.314) rotate(-60.001)" fill="#1ba7b4"/>
    <rect id="사각형_16516" data-name="사각형 16516" width="7.792" height="3.328" transform="translate(76.604 10.208) rotate(-30.004)" fill="#1ba7b4"/>
    <rect id="사각형_16517" data-name="사각형 16517" width="3.328" height="7.792" transform="translate(82.498 7.759)" fill="#1ba7b4"/>
    <rect id="사각형_16518" data-name="사각형 16518" width="3.328" height="7.792" transform="translate(83.323 9.222) rotate(-60)" fill="#1ba7b4"/>
    <rect id="사각형_16519" data-name="사각형 16519" width="7.792" height="3.328" transform="translate(83.34 6.356) rotate(-29.999)" fill="#1ba7b4"/>
  </g>
  <g id="그룹_18" data-name="그룹 18" transform="translate(0 0)">
    <g id="그룹_17" data-name="그룹 17" clip-path="url(#clip-path)">
      <path id="패스_26" data-name="패스 26" d="M24.819,49.848a1.558,1.558,0,0,0-1.106-1.52,5.349,5.349,0,0,1-2.659-1.662,6.03,6.03,0,0,1-1.444-4.136V35.154a1.817,1.817,0,1,0-3.633,0v7.375a8.007,8.007,0,0,1-.941,4.071,3.258,3.258,0,0,1-2.473,1.795,3.282,3.282,0,0,1-2.517-1.773A7.971,7.971,0,0,1,9.1,42.529V35.154a1.817,1.817,0,1,0-3.633,0v7.375a6.173,6.173,0,0,1-1.51,4.246A5.568,5.568,0,0,1,1.174,48.5,1.622,1.622,0,0,0,2,51.633,8.783,8.783,0,0,0,4.553,50.5,6.765,6.765,0,0,0,7.31,47.213a6.215,6.215,0,0,0,2.035,3.13,5.167,5.167,0,0,0,3.217,1.247,5.024,5.024,0,0,0,3.151-1.247,6.848,6.848,0,0,0,2.1-3.13,8.207,8.207,0,0,0,2.911,3.151,8.976,8.976,0,0,0,2,.986A1.585,1.585,0,0,0,24.819,49.848Z" transform="translate(0 -23.082)"/>
      <path id="패스_27" data-name="패스 27" d="M68.3,106.592v14.1a1.765,1.765,0,0,0,1.97,1.97H86.031V106.592Zm14.138,12.834H71.893V109.84H82.442Z" transform="translate(-47.293 -73.804)"/>
      <path id="패스_28" data-name="패스 28" d="M167.03,36.212h0a1.8,1.8,0,0,0,1.795-1.795V24.35a1.765,1.765,0,0,0-1.97-1.97H150.7a1.62,1.62,0,1,0,0,3.239h14.532v8.8a1.8,1.8,0,0,0,1.795,1.795" transform="translate(-103.225 -15.496)"/>
      <path id="패스_29" data-name="패스 29" d="M133.767,28.9H118.272V20.93a1.795,1.795,0,0,0-3.589,0V28.9h-9.09a3.81,3.81,0,0,1-2.626-1.839,9.009,9.009,0,0,1-.832-4.377V6.486a1.751,1.751,0,1,0-3.5,0v8.492h-5.34V6.749a1.751,1.751,0,1,0-3.5,0V30.385a1.751,1.751,0,1,0,3.5,0V18.217h5.34v5.165q0,4.159,1.816,6.347a6.909,6.909,0,0,0,5.055,2.4v.009h28.263a1.62,1.62,0,0,0,0-3.239" transform="translate(-62.17 -3.278)"/>
      <path id="패스_30" data-name="패스 30" d="M188.751,67.554a1.635,1.635,0,0,0-1.619,1.521,11.187,11.187,0,0,1-3.3,7.544c-3.944,3.7-10.149,3.348-10.209,3.343l-5.512,0v.007h-6.3a9.624,9.624,0,0,0-4.6,1.073,7.941,7.941,0,0,0-3.151,2.977,8.9,8.9,0,0,0,0,8.71,7.942,7.942,0,0,0,3.151,2.977,10.386,10.386,0,0,0,9.192,0,7.957,7.957,0,0,0,3.152-2.977,8.325,8.325,0,0,0,1.138-4.355,5.927,5.927,0,0,0-.2-1.566,1.739,1.739,0,0,0-1.7-1.236,1.769,1.769,0,0,0-1.757,2.022,5.189,5.189,0,0,1,.058.779,4.94,4.94,0,0,1-1.51,3.7,5.623,5.623,0,0,1-7.573,0,5.285,5.285,0,0,1,0-7.4,5.217,5.217,0,0,1,3.786-1.466h11.652c.113.006.353.017.7.017,2.049,0,7.756-.371,11.872-4.215a14.313,14.313,0,0,0,4.341-9.731,1.617,1.617,0,0,0-1.623-1.721" transform="translate(-105.885 -46.774)"/>
    </g>
  </g>
</svg>
